<mxfile host="app.diagrams.net" agent="Mozilla/5.0 (Windows NT 10.0; Win64; x64) AppleWebKit/537.36 (KHTML, like Gecko) Chrome/137.0.0.0 Safari/537.36" version="27.1.4">
  <diagram name="PÃ¡gina-1" id="7o3t-udAApV2d6d8aEwJ">
    <mxGraphModel dx="1426" dy="775" grid="1" gridSize="10" guides="1" tooltips="1" connect="1" arrows="1" fold="1" page="1" pageScale="1" pageWidth="827" pageHeight="1169" math="0" shadow="0">
      <root>
        <mxCell id="0" />
        <mxCell id="1" parent="0" />
        <mxCell id="afBQBB0PZFj05vhGKdrN-7" style="edgeStyle=orthogonalEdgeStyle;rounded=0;orthogonalLoop=1;jettySize=auto;html=1;" edge="1" parent="1" source="afBQBB0PZFj05vhGKdrN-1" target="afBQBB0PZFj05vhGKdrN-6">
          <mxGeometry relative="1" as="geometry" />
        </mxCell>
        <mxCell id="afBQBB0PZFj05vhGKdrN-1" value="generaa metadata&amp;nbsp;&lt;div&gt;conversation&lt;/div&gt;" style="outlineConnect=0;dashed=0;verticalLabelPosition=bottom;verticalAlign=top;align=center;html=1;shape=mxgraph.aws3.lambda_function;fillColor=#F58534;gradientColor=none;" vertex="1" parent="1">
          <mxGeometry x="170" y="142" width="69" height="72" as="geometry" />
        </mxCell>
        <mxCell id="afBQBB0PZFj05vhGKdrN-2" value="json" style="shape=note;whiteSpace=wrap;html=1;backgroundOutline=1;darkOpacity=0.05;" vertex="1" parent="1">
          <mxGeometry x="174.5" y="312" width="60" height="70" as="geometry" />
        </mxCell>
        <mxCell id="afBQBB0PZFj05vhGKdrN-3" style="edgeStyle=orthogonalEdgeStyle;rounded=0;orthogonalLoop=1;jettySize=auto;html=1;entryX=0;entryY=0;entryDx=30;entryDy=0;entryPerimeter=0;" edge="1" parent="1" source="afBQBB0PZFj05vhGKdrN-1" target="afBQBB0PZFj05vhGKdrN-2">
          <mxGeometry relative="1" as="geometry" />
        </mxCell>
        <mxCell id="afBQBB0PZFj05vhGKdrN-4" value="" style="sketch=0;points=[[0,0,0],[0.25,0,0],[0.5,0,0],[0.75,0,0],[1,0,0],[0,1,0],[0.25,1,0],[0.5,1,0],[0.75,1,0],[1,1,0],[0,0.25,0],[0,0.5,0],[0,0.75,0],[1,0.25,0],[1,0.5,0],[1,0.75,0]];outlineConnect=0;fontColor=#232F3E;fillColor=#7AA116;strokeColor=#ffffff;dashed=0;verticalLabelPosition=bottom;verticalAlign=top;align=center;html=1;fontSize=12;fontStyle=0;aspect=fixed;shape=mxgraph.aws4.resourceIcon;resIcon=mxgraph.aws4.s3;" vertex="1" parent="1">
          <mxGeometry x="165.5" y="452" width="78" height="78" as="geometry" />
        </mxCell>
        <mxCell id="afBQBB0PZFj05vhGKdrN-5" style="edgeStyle=orthogonalEdgeStyle;rounded=0;orthogonalLoop=1;jettySize=auto;html=1;entryX=0.5;entryY=0;entryDx=0;entryDy=0;entryPerimeter=0;" edge="1" parent="1" source="afBQBB0PZFj05vhGKdrN-2" target="afBQBB0PZFj05vhGKdrN-4">
          <mxGeometry relative="1" as="geometry" />
        </mxCell>
        <mxCell id="afBQBB0PZFj05vhGKdrN-11" style="edgeStyle=orthogonalEdgeStyle;rounded=0;orthogonalLoop=1;jettySize=auto;html=1;" edge="1" parent="1" source="afBQBB0PZFj05vhGKdrN-6" target="afBQBB0PZFj05vhGKdrN-8">
          <mxGeometry relative="1" as="geometry" />
        </mxCell>
        <mxCell id="afBQBB0PZFj05vhGKdrN-6" value="SQS" style="sketch=0;points=[[0,0,0],[0.25,0,0],[0.5,0,0],[0.75,0,0],[1,0,0],[0,1,0],[0.25,1,0],[0.5,1,0],[0.75,1,0],[1,1,0],[0,0.25,0],[0,0.5,0],[0,0.75,0],[1,0.25,0],[1,0.5,0],[1,0.75,0]];outlineConnect=0;fontColor=#232F3E;fillColor=#E7157B;strokeColor=#ffffff;dashed=0;verticalLabelPosition=bottom;verticalAlign=top;align=center;html=1;fontSize=12;fontStyle=0;aspect=fixed;shape=mxgraph.aws4.resourceIcon;resIcon=mxgraph.aws4.sqs;" vertex="1" parent="1">
          <mxGeometry x="380" y="149" width="58" height="58" as="geometry" />
        </mxCell>
        <mxCell id="afBQBB0PZFj05vhGKdrN-8" value="AWS Step Functions workflow" style="points=[[0,0],[0.25,0],[0.5,0],[0.75,0],[1,0],[1,0.25],[1,0.5],[1,0.75],[1,1],[0.75,1],[0.5,1],[0.25,1],[0,1],[0,0.75],[0,0.5],[0,0.25]];outlineConnect=0;gradientColor=none;html=1;whiteSpace=wrap;fontSize=12;fontStyle=0;container=1;pointerEvents=0;collapsible=0;recursiveResize=0;shape=mxgraph.aws4.group;grIcon=mxgraph.aws4.group_aws_step_functions_workflow;strokeColor=#CD2264;fillColor=none;verticalAlign=top;align=left;spacingLeft=30;fontColor=#CD2264;dashed=0;" vertex="1" parent="1">
          <mxGeometry x="520" y="66" width="240" height="224" as="geometry" />
        </mxCell>
        <mxCell id="afBQBB0PZFj05vhGKdrN-10" value="generaa metadata&amp;nbsp;&lt;div&gt;conversation&lt;/div&gt;" style="outlineConnect=0;dashed=0;verticalLabelPosition=bottom;verticalAlign=top;align=center;html=1;shape=mxgraph.aws3.lambda_function;fillColor=#F58534;gradientColor=none;" vertex="1" parent="afBQBB0PZFj05vhGKdrN-8">
          <mxGeometry x="80" y="77" width="69" height="72" as="geometry" />
        </mxCell>
        <mxCell id="afBQBB0PZFj05vhGKdrN-12" style="edgeStyle=orthogonalEdgeStyle;rounded=0;orthogonalLoop=1;jettySize=auto;html=1;exitX=0.5;exitY=1;exitDx=0;exitDy=0;" edge="1" parent="1" source="afBQBB0PZFj05vhGKdrN-8" target="afBQBB0PZFj05vhGKdrN-8">
          <mxGeometry relative="1" as="geometry" />
        </mxCell>
      </root>
    </mxGraphModel>
  </diagram>
</mxfile>
